<?xml version="1.0" encoding="utf-8"?><!-- Uploaded to: SVG Repo, www.svgrepo.com, Generator: SVG Repo Mixer Tools -->
<svg width="800px" height="800px" viewBox="0 0 24 24" fill="none" xmlns="http://www.w3.org/2000/svg">
<path d="M21 7.5C21 8.88071 19.8807 10 18.5 10C17.1193 10 16 8.88071 16 7.5C16 6.11929 17.1193 5 18.5 5C19.8807 5 21 6.11929 21 7.5Z" fill="#0F0F0F"/>
<path d="M19.754 13.1283L12.354 6.96169C10.9095 5.75794 8.9118 5.46638 7.18351 6.20708L3.59222 7.7462C3.23294 7.90017 3 8.25344 3 8.64432C3 9.31126 3.6534 9.78221 4.28612 9.5713L7.82736 8.39089C8.54603 8.15133 9.33837 8.33838 9.87403 8.87404L11 10L5.72973 13.2939C5.87157 13.3782 6.00088 13.4783 6.11842 13.5911C6.42799 13.8883 6.65137 14.2865 6.76607 14.47C6.98521 14.8206 7.17253 15 7.60557 15C8.36469 15 9.01052 14.5286 9.61533 14.1249C10.3276 13.6493 11.2998 13 12.6056 13C13.2851 13 13.8472 13.1758 14.2876 13.5533C14.6634 13.8753 14.8675 14.2863 14.9818 14.5162C15.1485 14.8511 15.2073 15 15.6056 15C16.2877 15 16.9383 14.6595 17.769 14.1484C18.1839 13.893 18.5948 13.629 19.0329 13.4144C19.2526 13.3069 19.4942 13.2044 19.754 13.1283Z" fill="#0F0F0F"/>
<path d="M23.4472 18.8944C22.9536 19.1413 22.3534 18.9415 22.1061 18.4482C21.9575 18.1653 21.77 17.8986 21.5599 17.6585C21.1747 17.2183 20.8036 17 20.5 17C20.3434 17 20.128 17.0534 19.8071 17.2106C19.427 17.3967 19.0713 17.6296 18.7116 17.8517C17.9173 18.3405 16.8178 19 15.5 19C14.8205 19 14.2584 18.8242 13.818 18.4468C13.4996 18.1739 13.29 17.8176 13.1056 17.4472C12.9501 17.1363 12.8571 17 12.5 17C11.7409 17 11.0951 17.4714 10.4902 17.8751C9.77797 18.3508 8.8058 19 7.5 19C6.81825 19 6.26147 18.8244 5.81027 18.4962C5.38546 18.1873 5.12877 17.7928 4.9645 17.53C4.63557 17.0022 4.31057 16.9517 3.74611 17.2173C3.42379 17.369 3.08894 17.5809 2.77567 17.8087C2.4002 18.0818 2.03744 18.3806 1.70687 18.7073C1.31631 19.0974 0.68327 19.0975 0.292893 18.7071C-0.0976311 18.3166 -0.0976311 17.6834 0.292893 17.2929C0.696649 16.892 1.13966 16.5256 1.59933 16.1913C1.97356 15.9191 2.41996 15.631 2.89452 15.4077C3.35859 15.1893 3.91795 15 4.5 15C5.14106 15 5.63708 15.2304 6.01284 15.5911C6.28231 15.8498 6.48609 16.1843 6.61007 16.3878C6.71551 16.5609 6.81996 16.7576 6.98661 16.8788C7.05103 16.9256 7.18175 17 7.5 17C8.15438 17 8.66304 16.6895 9.4453 16.168C10.3754 15.5472 11.3467 15 12.5 15C13.1795 15 13.7416 15.1758 14.182 15.5532C14.5578 15.8753 14.762 16.2863 14.8762 16.5162C15.038 16.8411 15.1219 17 15.5 17C16.1822 17 16.8327 16.6595 17.6634 16.1483C18.0783 15.893 18.4892 15.629 18.9273 15.4144C19.372 15.1967 19.9066 15 20.5 15C21.6964 15 22.5753 15.7817 23.0651 16.3415C23.3854 16.7076 23.6681 17.1144 23.8916 17.5471C24.134 18.0276 23.9295 18.6533 23.4472 18.8944Z" fill="#0F0F0F"/>
</svg>